<svg xmlns="http://www.w3.org/2000/svg" viewBox="0 0 109.54 38"><defs><style>.cls-1{fill:red;}.cls-2{fill:#fff;}</style></defs><title>资源 1</title><g id="图层_2" data-name="图层 2"><g id="图层_1-2" data-name="图层 1"><path class="cls-1" d="M19,0A19,19,0,1,0,38,19,19,19,0,0,0,19,0Zm9.91,27H24.77V18.37L20.25,27H17.62l-4.55-8.68V27H8.94V9.69h4.18l5.82,10.72L24.75,9.69h4.16Z"/><polygon class="cls-2" points="18.94 20.41 13.12 9.69 8.94 9.69 8.94 27 13.07 27 13.07 18.32 17.62 27 20.25 27 24.77 18.37 24.77 27 28.91 27 28.91 9.69 24.75 9.69 18.94 20.41"/><path d="M50.34,22.84c.84.19,1.27.61,1.27,1.27-.19,2.53-.66,3.8-1.41,3.8h-.42c-.85,0-1.27-.38-1.27-1.13C49.07,24.16,49.68,22.84,50.34,22.84ZM67.07,4.42c3.19.66,4.79,1.92,4.79,3.8q-2.11,1.68-4.65,7.17A11.22,11.22,0,0,0,64.4,14l-1.26.43.14.42,1.26.29h.28a1.58,1.58,0,0,1,1.27,1.76L62.86,18.2h4.92c2.53,0,3.79.5,3.79,1.48v.67L71,21.3,67.07,21H65.81q-1.55,0-14.06,1.69L51,20.25c5.72-.55,8.58-.91,8.58-1.1v-.27l-.14-.27-1.83.28h-.42c-.75,0-1.12-.39-1.12-1.16v-.87c2.34-.48,3.51-.87,3.51-1.16V15a24.17,24.17,0,0,1-5.62.84c-.85,0-1.6-2.76-2.25-8.3A36,36,0,0,1,67.07,4.42ZM60.18,23.69h1.55c1,2.06,1.73,3.09,2.11,3.09A17.91,17.91,0,0,0,66,26.5a3.46,3.46,0,0,0,1.55.28V28c0,.82-1.32,1.36-3.94,1.64l-.14.27L63.56,31q0,.14,9.28.41L74,33.06V34.8h-.85a38.78,38.78,0,0,0-8.3-1,101.58,101.58,0,0,0-12.65,1.27L51.75,34c0-.66,2.71-1.54,8.15-2.67.28-.28.42-.47.42-.56L60,30H57.65q-1.26,0-1.26-1.68c2.53-1,3.84-1.55,3.93-1.55Zm-4.36-.85c1,.38,1.55.89,1.55,1.55v.7c0,.85-.33,1.27-1,1.27H56c-.56,0-1.17-.61-1.82-1.83v-.42C54.14,23.26,54.7,22.84,55.82,22.84ZM55,9.2l.14,2.11.56,1.55h1.41l.42-.28a9.36,9.36,0,0,1-.84-3.66h2.39A15,15,0,0,0,59.9,12H60c0,.1.1-.09.28-.56-.37-2.15-.7-3.23-1-3.23H57.65C55.87,8.5,55,8.83,55,9.2Zm7-1.69v.15c0,1.31.19,2,.56,2.1.57-1.4,1.13-2.1,1.69-2.1h1.13c0,.47.14.7.42.7l-1.41,3h.42q3.24-.42,2.68-3.37V7.37H66.37A27,27,0,0,0,62,7.51Zm1.83,13.93a2.08,2.08,0,0,1,1.69,2.25,9.14,9.14,0,0,0-.14,1.82H63.7C62.57,24.86,62,23.59,62,21.72A7.76,7.76,0,0,0,63.84,21.44Zm7.59.28c3.1.75,4.64,1.64,4.64,2.67v1.69h-2q-3.52-2-4.22-3.66Z"/><path d="M92.38,4.68h1.13c.65,0,1.17.52,1.54,1.55V7.35a13.18,13.18,0,0,0-2.53.85v3.09h2.11l3.8-.42.84,1.69V14c-2.81.1-4.22.24-4.22.44q0,1.14,13.93,5.3l.56,1c0,.95-.42,1.42-1.27,1.42q-15.75-3.57-15.75-7.44h.28v6.6h.28q6.19,0,7.6,1.95c-.56,6.31-1.32,10.3-2.25,12-.56,0-2-.1-4.36-.28-.28,0-1.78.09-4.5.28q-3.52,0-3.52-3.1V28.31c0-1.22-.09-2.91-.28-5.06a3.73,3.73,0,0,0,.28-1.41l3,.28.84-.14-.14-1.55A37.21,37.21,0,0,0,90,16.5l-.28-.15h-.28q-5.36,6.48-10.69,7.74L78,22.4a21.14,21.14,0,0,0,8.72-6.47v-.28a27.06,27.06,0,0,0-3.24.42,2.53,2.53,0,0,0-1.26-.42v-.84q0-1.12,7.45-3V9.46H88.44l-2.11.43V8.62ZM88.3,24.79v.85c0,.09.24.23.71.42q6.18-.57,6.18-1.27a6.6,6.6,0,0,0,2.11.71v.84q0,1.68-8.43,2.81v2.53h5l2.84.42a48.56,48.56,0,0,0,.84-7.59L97,24H93C89.88,24.32,88.3,24.61,88.3,24.79Z"/></g></g></svg>